<?xml version="1.0" encoding="utf-8"?><svg width="128" height="96" viewBox="0 0 128 96" xmlns="http://www.w3.org/2000/svg" xmlns:xlink="http://www.w3.org/1999/xlink"><svg id="prod-ai" width="32" height="32" viewBox="0 0 32 32" y="64"><style>.ast0{fill:#757a80}</style><g id="aXMLID_57_"><path id="aXMLID_58_" class="ast0" d="M17 9.1v-2c-.3-.1-.7-.1-1-.1-5 0-9 4-9 9 0 2.8 1.3 5.4 3.4 7l.3-.3 6.3-6.3V9.1zm-2 6.5l-4.6 4.6C9.5 19 9 17.6 9 16c0-3.5 2.6-6.4 6-6.9v6.5zm10 .4c0-3.9-2.5-7.2-6-8.5v2.2c2.4 1.1 4 3.5 4 6.3 0 3.9-3.1 7-7 7-.8 0-1.6-.2-2.3-.4l-1.5 1.5c1.2.6 2.5.9 3.9.9 4.9 0 8.9-4 8.9-9zm4-7.4l-1.5 1.5c.9 1.8 1.4 3.8 1.4 5.9 0 7.2-5.8 13-13 13-2.1 0-4.1-.5-5.9-1.4v-.2c0-1.1-.9-2-2-2s-2 .9-2 2 .9 2 2 2c.3 0 .5-.1.7-.1 2.3 1 4.7 1.7 7.3 1.7 8.3 0 15-6.7 15-15 0-2.7-.7-5.2-2-7.4zM16 3c2.1 0 4.1.5 5.9 1.4 0 1.1.9 2 2 2s2-.9 2-2-.9-2-2-2c-.3 0-.7.1-1 .3C20.9 1.6 18.5 1 16 1 7.7 1 1 7.7 1 16c0 2.7.7 5.2 2 7.4l1.5-1.5C3.5 20.1 3 18.1 3 16 3 8.8 8.8 3 16 3z"/></g></svg><svg id="prod-cdn" width="32" height="32" viewBox="0 0 32 32" x="32" y="64"><style>.bst0{fill-rule:evenodd;clip-rule:evenodd;fill:#757a80}</style><g id="bXMLID_16_"><g id="bXMLID_100_"><path id="bXMLID_101_" class="bst0" d="M29.6 7.8L16 0v2l11.9 6.8 1.7-1zM16 24l7-4v-8l-7-4v2l5.2 3-5.2 3-5.2-3 5.2-3V8l-7 4v8l7 4v-1 1zm1-6.6l4-2.3v4l-4 2.3v-4zm-2 4l-4-2.3v-4l4 2.3v4zM4 8.9L16 2V0L2 8v16l14 8v-2L4 23.1V8.9zM30 22V11.6l-2 1.1v10.4L16 30v2l14-8v-2z"/></g></g></svg><svg id="service-retrieve-password" viewBox="0 0 64 64" width="64" height="64"><style>.cst0{fill-rule:evenodd;clip-rule:evenodd;fill:#757a80}</style><g id="cXMLID_53_"><path id="cXMLID_54_" class="cst0" d="M32 8c3.7 0 7.2.8 10.3 2.3l-2 2 7.1 1.4-1.4-7-2.1 2.1A26.4 26.4 0 0 0 32 6C17.6 6 6 17.6 6 32c0 4.3 1 8.3 2.9 11.8l1.5-1.5C8.8 39.2 8 35.7 8 32 8 18.8 18.8 8 32 8zm1 36V32.9c2.8-.5 5-2.9 5-5.9 0-3.3-2.7-6-6-6s-6 2.7-6 6c0 3 2.2 5.4 5 5.9V35h-4l1 2h3v2h-3l1 2h2v3h2zm-5-17c0-2.2 1.8-4 4-4s4 1.8 4 4-1.8 4-4 4-4-1.8-4-4zm27.1-6.8l-1.5 1.5C55.2 24.8 56 28.3 56 32c0 13.2-10.8 24-24 24-3.7 0-7.2-.8-10.3-2.3l2-2-7.1-1.4 1.4 7.1 2.2-2.2C23.7 57 27.7 58 32 58c14.4 0 26-11.6 26-26 0-4.3-1-8.3-2.9-11.8z"/></g></svg><svg id="service-withdraw" viewBox="0 0 64 64" width="64" height="64" x="64"><style>.dst0{fill:#757a80}</style><g id="dXMLID_2_"><g id="dXMLID_93_"><path id="dXMLID_94_" class="dst0" d="M49 17v4h2v-6h-9l-2 2h9zM32 31v2h-1.2c-2.1 0-3.8 1.6-3.8 3.5s1.7 3.5 3.8 3.5h4.4c.9 0 1.6.7 1.6 1.5s-.7 1.5-1.6 1.5H28v2h4v2h2v-2h1.2c2.1 0 3.8-1.6 3.8-3.5S37.3 38 35.2 38h-4.4c-.9 0-1.6-.7-1.6-1.5s.7-1.5 1.6-1.5H38v-2h-4v-2h-2zm1-10l8-9v-2h-4V0H27v10h-4v2l8 9h2zm-5-9h1V2h6v10h3.2l-6 7h-.3l-6-7H28zM14 23c-1.7 0-3-1.3-3-3s1.3-3 3-3h10l-2-2h-8c-2.8 0-5 2.2-5 5v30h2V24c.8.6 1.9 1 3 1h39v28H14c-1.7 0-3-1.3-3-3H9c0 2.8 2.2 5 5 5h41V23H14z"/></g></g></svg></svg>