<?xml version="1.0" encoding="utf-8"?>
<!-- Generator: Adobe Illustrator 16.0.0, SVG Export Plug-In . SVG Version: 6.00 Build 0)  -->
<!DOCTYPE svg PUBLIC "-//W3C//DTD SVG 1.1//EN" "http://www.w3.org/Graphics/SVG/1.1/DTD/svg11.dtd">
<svg version="1.1" id="service-withdraw" xmlns="http://www.w3.org/2000/svg" xmlns:xlink="http://www.w3.org/1999/xlink" x="0px"
	 y="0px" width="132px" height="100px" viewBox="-34 -18 132 100" enable-background="new -34 -18 132 100" xml:space="preserve">
<g id="bXMLID_16_">
	<g id="bXMLID_100_">
		<path id="bXMLID_101_" fill="#757A80" d="M29.597,56.801L15.997,49v2l11.9,6.801L29.597,56.801z M15.997,73l7-4v-8l-7-4v2l5.2,3
			l-5.2,3l-5.2-3l5.2-3v-2l-7,4v8L15.997,73v-1V73z M16.997,66.4l4-2.301v4l-4,2.301V66.4z M14.997,70.4l-4-2.301v-4l4,2.301V70.4z
			 M3.997,57.9l12-6.9v-2l-14,8v16l14,8v-2l-12-6.9V57.9z M29.997,71V60.6l-2,1.102V72.1l-12,6.9v2l14-8V71z"/>
	</g>
</g>
<g id="cXMLID_53_">
	<path id="cXMLID_54_" fill="#757A80" d="M-0.849-8.851c3.7,0,7.2,0.8,10.3,2.3l-2,2l7.101,1.4l-1.4-7l-2.1,2.1
		c-3.693-1.852-7.77-2.811-11.9-2.8c-14.4,0-26,11.6-26,26c0,4.3,1,8.3,2.9,11.8l1.5-1.5c-1.601-3.1-2.4-6.6-2.4-10.3
		C-24.849,1.949-14.049-8.851-0.849-8.851z M0.151,27.149v-11.1c2.8-0.5,5-2.9,5-5.9c0-3.3-2.7-6-6-6s-6,2.7-6,6c0,3,2.2,5.4,5,5.9
		v2.1h-4l1,2h3v2h-3l1,2h2v3H0.151z M-4.849,10.149c0-2.2,1.8-4,4-4s4,1.8,4,4s-1.8,4-4,4S-4.849,12.349-4.849,10.149z M22.25,3.349
		l-1.5,1.5c1.601,3.1,2.4,6.6,2.4,10.3c0,13.2-10.8,24-24,24c-3.7,0-7.2-0.799-10.3-2.299l2-2l-7.101-1.4l1.4,7.1l2.2-2.199
		c3.5,1.799,7.5,2.799,11.8,2.799c14.4,0,26-11.6,26-26C25.151,10.849,24.151,6.849,22.25,3.349z"/>
</g>
<g id="dXMLID_2_">
	<g id="dXMLID_93_">
		<path id="dXMLID_94_" fill="#757A80" d="M82,4.5v4h2v-6h-9l-2,2H82z M65,18.5v2h-1.2c-2.1,0-3.8,1.6-3.8,3.5s1.7,3.5,3.8,3.5h4.4
			c0.899,0,1.6,0.7,1.6,1.5s-0.7,1.5-1.6,1.5H61v2h4v2h2v-2h1.2c2.1,0,3.8-1.6,3.8-3.5s-1.7-3.5-3.8-3.5h-4.4
			c-0.899,0-1.6-0.7-1.6-1.5s0.7-1.5,1.6-1.5H71v-2h-4v-2H65z M66,8.5l8-9v-2h-4v-10H60v10h-4v2l8,9H66z M61-0.5h1v-10h6v10h3.2
			l-6,7h-0.3l-6-7H61z M47,10.5c-1.7,0-3-1.3-3-3s1.3-3,3-3h10l-2-2h-8c-2.8,0-5,2.2-5,5v30h2v-26c0.8,0.6,1.9,1,3,1h39v28H47
			c-1.7,0-3-1.3-3-3h-2c0,2.8,2.2,5,5,5h41v-32H47z"/>
	</g>
</g>
<g id="aXMLID_57_">
	<path id="aXMLID_58_" fill="#757A80" d="M-15.95,57.85v-2c-0.3-0.1-0.7-0.1-1-0.1c-5,0-9,4-9,9c0,2.8,1.3,5.4,3.4,7l0.3-0.3
		l6.3-6.3V57.85z M-17.95,64.35l-4.6,4.601c-0.9-1.2-1.4-2.601-1.4-4.2c0-3.5,2.6-6.4,6-6.9V64.35z M-7.95,64.75
		c0-3.9-2.5-7.2-6-8.5v2.2c2.4,1.1,4,3.5,4,6.3c0,3.9-3.1,7-7,7c-0.8,0-1.6-0.2-2.3-0.4l-1.5,1.5c1.2,0.601,2.5,0.9,3.899,0.9
		C-11.95,73.75-7.95,69.75-7.95,64.75z M-3.95,57.35l-1.5,1.5c0.9,1.801,1.4,3.801,1.4,5.9c0,7.2-5.801,13-13,13
		c-2.101,0-4.101-0.5-5.9-1.4V76.15c0-1.101-0.9-2-2-2s-2,0.899-2,2c0,1.1,0.9,2,2,2c0.3,0,0.5-0.101,0.7-0.101
		c2.3,1,4.7,1.7,7.3,1.7c8.3,0,15-6.7,15-15C-1.95,62.05-2.65,59.55-3.95,57.35z M-16.95,51.75c2.1,0,4.1,0.5,5.9,1.4
		c0,1.1,0.899,2,2,2c1.1,0,2-0.9,2-2c0-1.101-0.9-2-2-2c-0.301,0-0.7,0.1-1,0.3c-2-1.101-4.4-1.7-6.9-1.7c-8.3,0-15,6.7-15,15
		c0,2.7,0.7,5.2,2,7.4l1.5-1.5c-1-1.801-1.5-3.801-1.5-5.9C-29.95,57.55-24.15,51.75-16.95,51.75z"/>
</g>
</svg>
