<?xml version="1.0" encoding="utf-8"?>
<!-- Generator: Adobe Illustrator 19.0.0, SVG Export Plug-In . SVG Version: 6.00 Build 0)  -->
<svg version="1.1" id="图层_1" xmlns="http://www.w3.org/2000/svg" xmlns:xlink="http://www.w3.org/1999/xlink" x="0px" y="0px"
	 viewBox="0 0 218 218" style="enable-background:new 0 0 218 218;" xml:space="preserve">
<style type="text/css">
	.st0{enable-background:new    ;}
	.st1{fill:#0085F6;}
	.st2{fill:url(#SVGID_1_);}
</style>
<g class="st0">
	<path class="st1" d="M102,184.7c0.8,0.6,1.2,1.4,1.3,2.4h-1.1c-0.1-0.7-0.5-1.3-1.1-1.7c-0.5-0.4-1.2-0.6-2-0.6
		c-1.2,0-2.1,0.4-2.7,1.2s-0.9,1.8-0.9,3c0,1.3,0.3,2.2,0.9,3s1.5,1.2,2.7,1.2c0.8,0,1.5-0.2,2-0.6c0.6-0.5,1-1.1,1.2-2h1.1
		c-0.2,1.2-0.7,2.1-1.6,2.7c-0.8,0.6-1.7,0.9-2.8,0.9c-1.5,0-2.7-0.5-3.6-1.5c-0.7-0.9-1.1-2.1-1.1-3.6s0.4-2.7,1.1-3.7
		c0.8-1.1,2-1.6,3.6-1.6C100.3,183.8,101.2,184.1,102,184.7z"/>
	<path class="st1" d="M104.1,184h1.3l3.1,8.8l0,0l3.1-8.8h1.3l-3.7,10h-1.4L104.1,184z"/>
	<path class="st1" d="M114,184h1.4l3.7,8.5l0,0l3.7-8.5h1.4v10h-1.1v-8l0,0l-3.5,8h-1l-3.5-8l0,0v8H114V184z"/>
</g>
<g>
	<g>
		
			<linearGradient id="SVGID_1_" gradientUnits="userSpaceOnUse" x1="140.1846" y1="159.1756" x2="74.165" y2="44.8264" gradientTransform="matrix(1 0 0 1 2 0)">
			<stop  offset="0" style="stop-color:#0063FF"/>
			<stop  offset="1" style="stop-color:#00C8DE"/>
		</linearGradient>
		<path class="st2" d="M109.2,165c-34.8,0-63-28.2-63-63s28.2-63,63-63c33.1,0,60.2,25.5,62.8,58h3c-2.6-34.1-31-61-65.8-61
			c-36.5,0-66,29.5-66,66s29.5,66,66,66c34.8,0,63.2-26.9,65.8-61h-3C169.4,139.5,142.3,165,109.2,165z M142.2,115V85v-2v-1l-33-20
			l-33,20v1v2v30v3L99,131.8c0.3-0.8,0.8-1.5,1.3-2.2l-21.1-12.8v-30l30,18.2l30-18.2v30L113,132.7c-0.9-1-2.2-1.7-3.8-1.7
			c-2.8,0-5,2.2-5,5s2.2,5,5,5s5-2.2,5-5c0-0.3,0-0.7-0.1-1l28.1-17L142.2,115L142.2,115z M139.2,83.8l-30,18.2l-30-18.2v-0.6
			l30-18.2l30,18.2V83.8z"/>
	</g>
</g>
</svg>
