<?xml version="1.0" encoding="utf-8"?>
<!-- Generator: Adobe Illustrator 19.0.0, SVG Export Plug-In . SVG Version: 6.00 Build 0)  -->
<svg version="1.1" id="图层_1" xmlns="http://www.w3.org/2000/svg" xmlns:xlink="http://www.w3.org/1999/xlink" x="0px" y="0px"
	 width="32px" height="32px" viewBox="-289 381 32 32" style="enable-background:new -289 381 32 32;" xml:space="preserve">
<style type="text/css">
	.st0{fill:#00a4ff;}
</style>
<title>icon</title>
<path class="st0" d="M-261.8,403.5l-6.2-2.5v-2.5c1.9-2,2.9-4.7,3-7.5c0-5-2-10-8-10s-8,5-8,10c0.1,2.8,1.1,5.4,3,7.5v2.5l-6.2,2.5
	c-2.3,0.9-3.8,3.1-3.8,5.6v3.9h30v-3.9C-258,406.6-259.5,404.4-261.8,403.5z M-273,383c2.2,0,6,1,6,8c0,3.5-2.9,8-6,8s-6-4.5-6-8
	C-279,384-275.2,383-273,383z M-260,411h-26v-1.9c0-1.6,1-3.1,2.5-3.7l6.2-2.5l1.3-0.5v-2.3c0.9,0.6,1.9,0.9,3,0.9
	c1.1,0,2.1-0.3,3-0.9v2.2l1.3,0.5l6.2,2.5c1.5,0.6,2.5,2.1,2.5,3.7V411z"/>
</svg>
