<svg id="图层_1" data-name="图层 1" xmlns="http://www.w3.org/2000/svg" width="16" height="16" viewBox="0 0 16 16">
  <title>icon-adopt</title>
  <g id="问题详情页">
    <g id="Group-40">
      <path id="Shape" d="M8,0a8,8,0,1,0,8,8A8,8,0,0,0,8,0ZM8,14.769A6.769,6.769,0,1,1,14.769,8,6.776,6.776,0,0,1,8,14.769Z" style="fill: gray"/>
      <path id="Shape-2" data-name="Shape" d="M10.815,5.3,7.273,8.837l-2-2a.615.615,0,0,0-.87.87l2.439,2.439a.616.616,0,0,0,.87,0l3.977-3.977a.615.615,0,1,0-.869-.87Z" style="fill: gray"/>
    </g>
  </g>
</svg>
