<svg id="图层_1" data-name="图层 1" xmlns="http://www.w3.org/2000/svg" xmlns:xlink="http://www.w3.org/1999/xlink" width="16" height="16" viewBox="0 0 16 16"><defs><style>.cls-1{fill:none;}.cls-2{clip-path:url(#clip-path);}.cls-3{clip-path:url(#clip-path-2);}.cls-4{fill:#888;}</style><clipPath id="clip-path"><rect class="cls-1" x="-998.17" y="-332.67" width="20" height="20"/></clipPath><clipPath id="clip-path-2"><rect class="cls-1" x="-960" y="-333" width="20" height="20"/></clipPath></defs><title>icon</title><path class="cls-4" d="M13,1H2A2,2,0,0,0,0,3V14a2,2,0,0,0,2,2H13a2,2,0,0,0,2-2V3A2,2,0,0,0,13,1Zm1,13a1,1,0,0,1-1,1H2a1,1,0,0,1-1-1V3A1,1,0,0,1,2,2H13a1,1,0,0,1,1,1Z"/><polygon class="cls-4" points="6.85 9.53 4.73 7.41 4.03 8.11 6.15 10.23 6.85 10.94 11.03 6.77 10.32 6.06 6.85 9.53"/></svg>