<?xml version="1.0" encoding="utf-8"?>
<!-- Generator: Adobe Illustrator 19.0.0, SVG Export Plug-In . SVG Version: 6.00 Build 0)  -->
<svg version="1.1" id="图层_1" xmlns="http://www.w3.org/2000/svg" xmlns:xlink="http://www.w3.org/1999/xlink" x="0px" y="0px"
	 width="32px" height="32px"
	 viewBox="0 0 32 32" style="enable-background:new 0 0 32 32;" xml:space="preserve">
<style type="text/css">
	.st0{fill:#757A80;}
</style>
<g>
	<g id="XMLID_57_">
		<path id="XMLID_58_" class="st0" d="M17,9.1V8V7.1C16.7,7,16.3,7,16,7c-5,0-9,4-9,9c0,2.8,1.3,5.4,3.4,7l0.3-0.3l0,0l6.3-6.3V9.1z
			 M15,15.6l-4.6,4.6C9.5,19,9,17.6,9,16c0-3.5,2.6-6.4,6-6.9V15.6z M25,16c0-3.9-2.5-7.2-6-8.5v2.2c2.4,1.1,4,3.5,4,6.3
			c0,3.9-3.1,7-7,7c-0.8,0-1.6-0.2-2.3-0.4l-1.5,1.5c1.2,0.6,2.5,0.9,3.9,0.9C21,25,25,21,25,16z M29,8.6l-1.5,1.5
			c0.9,1.8,1.4,3.8,1.4,5.9c0,7.2-5.8,13-13,13c-2.1,0-4.1-0.5-5.9-1.4l0,0c0-0.1,0-0.2,0-0.2c0-1.1-0.9-2-2-2s-2,0.9-2,2
			c0,1.1,0.9,2,2,2c0.3,0,0.5-0.1,0.7-0.1C11,30.3,13.4,31,16,31c8.3,0,15-6.7,15-15C31,13.3,30.3,10.8,29,8.6z M16,3
			c2.1,0,4.1,0.5,5.9,1.4l0,0c0,0,0,0,0,0c0,1.1,0.9,2,2,2c1.1,0,2-0.9,2-2c0-1.1-0.9-2-2-2c-0.3,0-0.7,0.1-1,0.3
			C20.9,1.6,18.5,1,16,1C7.7,1,1,7.7,1,16c0,2.7,0.7,5.2,2,7.4l1.5-1.5C3.5,20.1,3,18.1,3,16C3,8.8,8.8,3,16,3z"/>
	</g>
</g>
</svg>
