<?xml version="1.0" encoding="utf-8"?>
<!-- Generator: Adobe Illustrator 19.0.0, SVG Export Plug-In . SVG Version: 6.00 Build 0)  -->
<svg version="1.1" id="图层_1" xmlns="http://www.w3.org/2000/svg" xmlns:xlink="http://www.w3.org/1999/xlink" x="0px" y="0px"
	 viewBox="0 0 64 64" width="64" height="64" style="enable-background:new 0 0 64 64;" xml:space="preserve">
<style type="text/css">
	.st0{fill:#757A80;}
</style>
<g id="XMLID_2_">
	<g id="XMLID_93_">
		<path id="XMLID_94_" class="st0" d="M49,17v4h2v-4v-2h-9l-2,2H49z M32,31v2h-1.2c-2.1,0-3.8,1.6-3.8,3.5c0,1.9,1.7,3.5,3.8,3.5
			h4.4c0.9,0,1.6,0.7,1.6,1.5c0,0.8-0.7,1.5-1.6,1.5H28v2h4v2h2v-2h1.2c2.1,0,3.8-1.6,3.8-3.5c0-1.9-1.7-3.5-3.8-3.5h-4.4
			c-0.9,0-1.6-0.7-1.6-1.5c0-0.8,0.7-1.5,1.6-1.5H38v-2h-4v-2H32z M33,21l8-9v-2h-4V0H27v10h-4v2l8,9H33z M28,12h1V2h6v10h3.2l-6,7
			h-0.3l-6-7H28z M14,23L14,23c-1.7,0-3-1.3-3-3s1.3-3,3-3h10l-2-2h-8c-2.8,0-5,2.2-5,5v30h2V24c0.8,0.6,1.9,1,3,1h39v28H14
			c-1.7,0-3-1.3-3-3H9c0,2.8,2.2,5,5,5h41V23H14z"/>
	</g>
</g>
</svg>
