<?xml version="1.0" encoding="utf-8"?>
<!-- Generator: Adobe Illustrator 19.0.0, SVG Export Plug-In . SVG Version: 6.00 Build 0)  -->
<svg version="1.1" id="图层_1" xmlns="http://www.w3.org/2000/svg" xmlns:xlink="http://www.w3.org/1999/xlink" x="0px" y="0px"
	 viewBox="0 0 64 64" width="64" height="64" style="enable-background:new 0 0 64 64;" xml:space="preserve">
<style type="text/css">
	.st0{fill-rule:evenodd;clip-rule:evenodd;fill:#757A80;}
</style>
<g>
	<g id="XMLID_53_">
		<path id="XMLID_54_" class="st0" d="M32,8c3.7,0,7.2,0.8,10.3,2.3l-2,2l7.1,1.4L46,6.7l-2.1,2.1C40.3,7,36.3,6,32,6
			C17.6,6,6,17.6,6,32c0,4.3,1,8.3,2.9,11.8l1.5-1.5C8.8,39.2,8,35.7,8,32C8,18.8,18.8,8,32,8z M33,44V32.9c2.8-0.5,5-2.9,5-5.9
			c0-3.3-2.7-6-6-6c-3.3,0-6,2.7-6,6c0,3,2.2,5.4,5,5.9V35h-4l1,2h3v2h-3l1,2h2v3H33z M28,27c0-2.2,1.8-4,4-4c2.2,0,4,1.8,4,4
			s-1.8,4-4,4C29.8,31,28,29.2,28,27z M55.1,20.2l-1.5,1.5C55.2,24.8,56,28.3,56,32c0,13.2-10.8,24-24,24c-3.7,0-7.2-0.8-10.3-2.3
			l2-2l-7.1-1.4l1.4,7.1l2.2-2.2C23.7,57,27.7,58,32,58c14.4,0,26-11.6,26-26C58,27.7,57,23.7,55.1,20.2z"/>
	</g>
</g>
</svg>
