<svg id="图层_1" data-name="图层 1" xmlns="http://www.w3.org/2000/svg" xmlns:xlink="http://www.w3.org/1999/xlink" width="16" height="16" viewBox="0 0 16 16"><defs><style>.cls-1{fill:none;}.cls-2{fill:#999;}.cls-3{clip-path:url(#clip-path);}.cls-4{clip-path:url(#clip-path-2);}</style><clipPath id="clip-path"><rect class="cls-1" x="-998.17" y="-358.67" width="20" height="20"/></clipPath><clipPath id="clip-path-2"><rect class="cls-1" x="-960" y="-359" width="20" height="20"/></clipPath></defs><title>icon</title><path class="cls-2" d="M13,6H11V2.65A1.65,1.65,0,0,0,9.35,1h0A1.65,1.65,0,0,0,7.73,2.33L7.2,5A1.22,1.22,0,0,1,6,6,2,2,0,0,0,4.25,7.05,1,1,0,0,0,4,7H2A1,1,0,0,0,1,8v6a1,1,0,0,0,1,1H4a1,1,0,0,0,.79-.42A2,2,0,0,0,6,15h6.4c.94,0,1.24-.65,1.45-1.57l1.11-5A2,2,0,0,0,13,6ZM4,14H2V8H4v6Zm8.87-.78c-.17.78-.29.78-.47.78H6a1,1,0,0,1-1-1V8A1,1,0,0,1,6,7,2.23,2.23,0,0,0,8.18,5.22l.54-2.69A.65.65,0,0,1,10,2.65V7h3a1,1,0,0,1,1,1.22Z"/></svg>