<svg id="图层_1" data-name="图层 1" xmlns="http://www.w3.org/2000/svg" xmlns:xlink="http://www.w3.org/1999/xlink" width="25" height="25" viewBox="0 0 20 20"><defs><style>.cls-1{fill:none;}.cls-2{fill:#888;}.cls-3{clip-path:url(#clip-path);}.cls-4{clip-path:url(#clip-path-2);}</style><clipPath id="clip-path"><rect class="cls-1" x="-967.17" y="-266.67" width="20" height="20"/></clipPath><clipPath id="clip-path-2"><rect class="cls-1" x="-929" y="-267" width="20" height="20"/></clipPath></defs><title>icon</title><path class="cls-2" d="M19.74,5.56A7.5,7.5,0,1,0,14,14.85l1.28,4.78a.5.5,0,0,0,1-.26l-1.28-4.78A7.49,7.49,0,0,0,19.74,5.56Zm-5.56,8.22a6.5,6.5,0,1,1,4.6-8A6.51,6.51,0,0,1,14.18,13.78Z"/><path class="cls-2" d="M8.5,19H.5a.5.5,0,1,0,0,1h8a.5.5,0,1,0,0-1Z"/><path class="cls-2" d="M.5,14H5.58a9.54,9.54,0,0,1-.82-1H.5a.5.5,0,1,0,0,1Z"/><path class="cls-2" d="M.5,8H3c0-.17,0-.33,0-.5S3,7.17,3,7H.5a.5.5,0,1,0,0,1Z"/><path class="cls-2" d="M.5,2H4.76a9.54,9.54,0,0,1,.82-1H.5a.5.5,0,1,0,0,1Z"/></svg>