<svg id="图层_1" data-name="图层 1" xmlns="http://www.w3.org/2000/svg" xmlns:xlink="http://www.w3.org/1999/xlink" width="32" height="32" viewBox="0 0 32 32"><defs><style>.cls-1,.cls-2{fill:none;}.cls-2{clip-rule:evenodd;}.cls-3{fill:#00a4ff;}.cls-4{clip-path:url(#clip-path);}.cls-5{clip-path:url(#clip-path-2);}.cls-6{clip-path:url(#clip-path-3);}</style><clipPath id="clip-path"><rect class="cls-1" x="-1102.17" y="-388.67" width="20" height="20"/></clipPath><clipPath id="clip-path-2"><rect class="cls-1" x="-1064" y="-389" width="20" height="20"/></clipPath><clipPath id="clip-path-3"><polygon class="cls-2" points="47 0 46 1 51 6 46 11 47 12 53 6 47 0"/></clipPath></defs><title>icon</title><path class="cls-3" d="M16,2A14,14,0,1,1,2,16,14,14,0,0,1,16,2m0-2A16,16,0,1,0,32,16,16,16,0,0,0,16,0Z"/><path class="cls-3" d="M20,10H17.17a2,2,0,0,0-1.41.59L9.59,16.76a2,2,0,0,0,0,2.83l2.83,2.83a2,2,0,0,0,2.83,0l6.17-6.17A2,2,0,0,0,22,14.83V12A2,2,0,0,0,20,10Zm-.29,3.71a1,1,0,1,1,0-1.41A1,1,0,0,1,19.71,13.71Z"/></svg>