<svg id="图层_1" data-name="图层 1" xmlns="http://www.w3.org/2000/svg" xmlns:xlink="http://www.w3.org/1999/xlink" width="120" height="120" viewBox="0 0 120 120"><defs><style>.cls-1{fill:#ddd;}.cls-2{fill:#999;}.cls-3{fill:url(#未命名的渐变_29);}</style><linearGradient id="未命名的渐变_29" x1="60" y1="120" x2="60" y2="75.5" gradientUnits="userSpaceOnUse"><stop offset="0.5" stop-color="#999"/><stop offset="1" stop-color="#737373"/></linearGradient></defs><title>icon [已恢复]</title><rect class="cls-1" x="-0.08" y="-0.08" width="120.17" height="120.17"/><path class="cls-2" d="M60,23C42.75,23,37,37.25,37,51.5S48.5,80,60,80,83,65.75,83,51.5,77.25,23,60,23Z"/><path class="cls-3" d="M89.22,87.83l-17.8-7.12V75.5A18.57,18.57,0,0,1,60,80a18.57,18.57,0,0,1-11.43-4.5v5.22l-17.8,7.12A17.14,17.14,0,0,0,20,103.75v1C20,120,44.63,120,60,120s40,0,40-15.29v-1A17.14,17.14,0,0,0,89.22,87.83Z"/></svg>