<?xml version="1.0" encoding="utf-8"?>
<!-- Generator: Adobe Illustrator 21.0.0, SVG Export Plug-In . SVG Version: 6.00 Build 0)  -->
<svg version="1.1" id="图层_1" xmlns="http://www.w3.org/2000/svg" xmlns:xlink="http://www.w3.org/1999/xlink" x="0px" y="0px"
	 width="16px" height="16px" viewBox="0 0 16 16" style="enable-background:new 0 0 16 16;" xml:space="preserve">
<style type="text/css">
	.st0{fill:#999999;}
	.st1{fill:#00a4ff;}
</style>
<g id="XMLID_2_">
	<path id="XMLID_124_" class="st0" d="M13,1c1.1,0,2,0.9,2,2v10c0,1.1-0.9,2-2,2H3c-1.1,0-2-0.9-2-2V3c0-1.1,0.9-2,2-2H13 M13,0H3
		C1.3,0,0,1.3,0,3v10c0,1.7,1.3,3,3,3h10c1.7,0,3-1.3,3-3V3C16,1.3,14.7,0,13,0L13,0z"/>
</g>
<g id="XMLID_5_">
	<g id="XMLID_133_">
		<polygon id="XMLID_134_" class="st1" points="14,5.4 12.7,4 6.7,10.2 4.3,7.7 3,9.1 5.4,11.6 5.4,11.6 6.7,13 8,11.6 8,11.6 		"/>
	</g>
</g>
</svg>
