<svg id="图层_1" data-name="图层 1" xmlns="http://www.w3.org/2000/svg" width="16" height="16" viewBox="0 0 16 16"><defs><style>.cls-1{fill:#05f;}</style></defs><title>icon</title><polygon class="cls-1" points="16 12.5 12 9 12 12 8 12 8 13 12 13 12 16 16 12.5"/><path class="cls-1" d="M1,14a2,2,0,0,1,1.26-1.86l3.11-1.25L6,10.68V9.79A2.72,2.72,0,0,0,7,10c2,0,4-2.5,4-5S10,0,7,0,3,2.5,3,5A5.64,5.64,0,0,0,5,9.19V10L1.89,11.25A3,3,0,0,0,0,14v2H8V15H1ZM4,5C4,1.52,5.88,1,7,1s3,.52,3,4c0,2.06-1.69,4-3,4S4,7.06,4,5Z"/></svg>