<?xml version="1.0" encoding="utf-8"?>
<!-- Generator: Adobe Illustrator 19.0.0, SVG Export Plug-In . SVG Version: 6.00 Build 0)  -->
<svg version="1.1" id="图层_1" xmlns="http://www.w3.org/2000/svg" xmlns:xlink="http://www.w3.org/1999/xlink" x="0px" y="0px"
	 width="32px" height="32px" viewBox="-289 381 32 32" style="enable-background:new -289 381 32 32;" xml:space="preserve">
<style type="text/css">
	.st0{fill:#00a4ff;}
</style>
<title>icon</title>
<path class="st0" d="M-272.5,381c-6.8-0.1-12.4,5.3-12.5,12.1c0,9.9,12.5,19.9,12.5,19.9s12.5-10.1,12.5-19.9
	C-260.1,386.3-265.7,380.9-272.5,381z M-272.5,410.4c-3-2.7-10.5-10.2-10.5-17.3c0.1-5.7,4.8-10.2,10.5-10.1
	c5.7-0.1,10.4,4.4,10.5,10.1C-262,400.1-269.5,407.6-272.5,410.4z"/>
<path class="st0" d="M-272.5,387c-3.6,0-6.5,2.9-6.5,6.5s2.9,6.5,6.5,6.5s6.5-2.9,6.5-6.5S-268.9,387-272.5,387z M-272.5,398
	c-2.5,0-4.5-2-4.5-4.5s2-4.5,4.5-4.5s4.5,2,4.5,4.5C-268,396-270,398-272.5,398z"/>
</svg>
