<?xml version="1.0" encoding="utf-8"?>
<!-- Generator: Adobe Illustrator 19.0.0, SVG Export Plug-In . SVG Version: 6.00 Build 0)  -->
<svg version="1.1" id="图层_1" xmlns="http://www.w3.org/2000/svg" xmlns:xlink="http://www.w3.org/1999/xlink" x="0px" y="0px"
	 width="24px" height="24px" viewBox="-293 385 24 24" style="enable-background:new -293 385 24 24;" xml:space="preserve">
<style type="text/css">
	.st0{fill:#00a4ff;}
</style>
<title>icon</title>
<path class="st0" d="M-269,385h-11v2h7.6l-6,6c-3.9-3.1-9.6-2.4-12.6,1.5c-3.1,3.9-2.4,9.6,1.5,12.6c3.9,3.1,9.6,2.4,12.6-1.5
	c2.6-3.3,2.6-8-0.1-11.3l6-6v7.6h2V385z M-284,407c-3.9,0-7-3.1-7-7s3.1-7,7-7s7,3.1,7,7S-280.1,407-284,407z"/>
</svg>
