<svg id="图层_1" data-name="图层 1" xmlns="http://www.w3.org/2000/svg" xmlns:xlink="http://www.w3.org/1999/xlink" width="16" height="16" viewBox="0 0 16 16"><defs><style>.cls-1{fill:none;}.cls-2{fill:#00a4ff;}.cls-3{clip-path:url(#clip-path);}.cls-4{clip-path:url(#clip-path-2);}</style><clipPath id="clip-path"><rect class="cls-1" x="-1031.17" y="-358.67" width="20" height="20"/></clipPath><clipPath id="clip-path-2"><rect class="cls-1" x="-993" y="-359" width="20" height="20"/></clipPath></defs><title>icon</title><path class="cls-2" d="M3,7H2A1,1,0,0,0,1,8v6a1,1,0,0,0,1,1H3a1,1,0,0,0,1-1V8A1,1,0,0,0,3,7Zm10.5-1H11V2.15a1.14,1.14,0,0,0-2.25-.23L8.21,4.62A1.77,1.77,0,0,1,6.43,6,1.46,1.46,0,0,0,5,7.5v6A1.49,1.49,0,0,0,6.48,15h5.71a1.49,1.49,0,0,0,1.45-1.17l1.32-6A1.5,1.5,0,0,0,13.51,6Z"/></svg>