<svg id="图层_1" data-name="图层 1" xmlns="http://www.w3.org/2000/svg" xmlns:xlink="http://www.w3.org/1999/xlink" width="16" height="16" viewBox="0 0 16 16"><defs><style>.cls-1{fill:none;}.cls-2{fill:#888;}.cls-3{clip-path:url(#clip-path);}.cls-4{clip-path:url(#clip-path-2);}</style><clipPath id="clip-path"><rect class="cls-1" x="-967.17" y="-332.67" width="20" height="20"/></clipPath><clipPath id="clip-path-2"><rect class="cls-1" x="-929" y="-333" width="20" height="20"/></clipPath></defs><title>icon</title><path class="cls-2" d="M14,14a1,1,0,0,1-1,1H2a1,1,0,0,1-1-1V3A1,1,0,0,1,2,2h8V1H2A2,2,0,0,0,0,3V14a2,2,0,0,0,2,2H13a2,2,0,0,0,2-2V6H14Z"/><path class="cls-2" d="M5,11H7l8-7.88L12.88,1,5,9ZM6,9.41l6.88-7,.7.7L6.59,10H6Z"/></svg>