<svg id="图层_1" data-name="图层 1" xmlns="http://www.w3.org/2000/svg" xmlns:xlink="http://www.w3.org/1999/xlink" width="16" height="16" viewBox="0 0 16 16"><defs><style>.cls-1{fill:none;}.cls-2{fill:#888;}.cls-3{clip-path:url(#clip-path);}.cls-4{clip-path:url(#clip-path-2);}</style><clipPath id="clip-path"><rect class="cls-1" x="-1067.17" y="-332.67" width="20" height="20"/></clipPath><clipPath id="clip-path-2"><rect class="cls-1" x="-1029" y="-333" width="20" height="20"/></clipPath></defs><title>icon</title><path class="cls-2" d="M13,1H3A2,2,0,0,0,1,3v7a2,2,0,0,0,2,2H7v3l4-3h2a2,2,0,0,0,2-2V3A2,2,0,0,0,13,1Zm1,9a1,1,0,0,1-1,1H10.7l-.25.17L8,13.13V11H3a1,1,0,0,1-1-1V3A1,1,0,0,1,3,2H13a1,1,0,0,1,1,1Z"/></svg>