<?xml version="1.0" encoding="UTF-8"?>
<svg width="11px" height="11px" viewBox="0 0 11 11" version="1.1" xmlns="http://www.w3.org/2000/svg" xmlns:xlink="http://www.w3.org/1999/xlink">
    <!-- Generator: Sketch 44.1 (41455) - http://www.bohemiancoding.com/sketch -->
    <title>Page 1</title>
    <desc>Created with Sketch.</desc>
    <defs>
        <polygon id="path-1" points="11 5.4998 11 0 0.00025 0 0.00025 10.9996 11 10.9996"></polygon>
    </defs>
    <g id="Page-1" stroke="none" stroke-width="1" fill="none" fill-rule="evenodd">
        <g id="社区首页" transform="translate(-16.000000, -132.000000)">
            <g id="Page-1" transform="translate(16.000000, 132.000000)">
                <g id="Group-3">
                    <mask id="mask-2" fill="white">
                        <use xlink:href="#path-1"></use>
                    </mask>
                    <g id="Clip-2"></g>
                    <path d="M10,4.8286 C10,5.0956 9.896,5.3466 9.707,5.5356 L5.535,9.7066 C5.347,9.8956 5.096,9.9996 4.828,9.9996 C4.562,9.9996 4.311,9.8956 4.121,9.7066 L1.293,6.8786 C0.903,6.4886 0.903,5.8546 1.293,5.4646 L5.465,1.2926 C5.653,1.1036 5.904,0.9996 6.172,0.9996 L9,0.9996 C9.268,0.9996 9.519,1.1036 9.707,1.2926 C9.896,1.4816 10,1.7326 10,1.9996 L10,4.8286 Z M9,-0.0004 L9,-0.0004 L6.172,-0.0004 C5.642,-0.0004 5.133,0.2106 4.758,0.5856 L0.586,4.7576 C-0.195,5.5386 -0.195,6.8046 0.586,7.5856 L3.414,10.4136 C3.805,10.8046 4.316,10.9996 4.828,10.9996 C5.34,10.9996 5.853,10.8046 6.242,10.4136 L10.414,6.2426 C10.789,5.8676 11,5.3586 11,4.8286 L11,1.9996 C11,0.8956 10.104,-0.0004 9,-0.0004 L9,-0.0004 Z" id="Fill-1" fill="#888888" mask="url(#mask-2)"></path>
                </g>
                <path d="M8,2 C7.744,2 7.488,2.098 7.293,2.293 C6.902,2.684 6.902,3.316 7.293,3.707 C7.488,3.902 7.744,4 8,4 C8.256,4 8.512,3.902 8.707,3.707 C9.098,3.316 9.098,2.684 8.707,2.293 C8.512,2.098 8.256,2 8,2" id="Fill-4" fill="#888888"></path>
            </g>
        </g>
    </g>
</svg>