<?xml version="1.0" encoding="utf-8"?>
<!-- Generator: Adobe Illustrator 19.0.0, SVG Export Plug-In . SVG Version: 6.00 Build 0)  -->
<svg version="1.1" id="图层_1" xmlns="http://www.w3.org/2000/svg" xmlns:xlink="http://www.w3.org/1999/xlink" x="0px" y="0px"
	 viewBox="0 0 24 24" style="enable-background:new 0 0 24 24;" xml:space="preserve">
<style type="text/css">
	.st0{fill:#7C848E;}
</style>
<g id="XMLID_4_">
	<path id="XMLID_8_" class="st0" d="M20,19c0,0.6-0.4,1-1,1H5c-0.6,0-1-0.4-1-1V5c0-0.6,0.4-1,1-1h5V2H5C3.3,2,2,3.3,2,5v14
		c0,1.7,1.3,3,3,3h14c1.7,0,3-1.3,3-3v-5h-2V19z"/>
	<path id="XMLID_5_" class="st0" d="M6,18h5L21.1,7.9c1.2-1.2,1.2-3.1,0-4.2l-0.8-0.8C19.8,2.3,19,2,18.2,2c-0.8,0-1.5,0.3-2.1,0.9
		L6,13V18z M8,13.8l9.5-9.5C17.8,4,18.1,4,18.2,4c0.2,0,0.5,0,0.7,0.3l0.8,0.8c0.4,0.4,0.4,1,0,1.4L10.2,16H8V13.8z"/>
</g>
</svg>
