<?xml version="1.0" encoding="utf-8"?>
<!-- Generator: Adobe Illustrator 19.0.0, SVG Export Plug-In . SVG Version: 6.00 Build 0)  -->
<svg version="1.1" id="图层_1" xmlns="http://www.w3.org/2000/svg" xmlns:xlink="http://www.w3.org/1999/xlink" x="0px" y="0px"
	 width="16px" height="16px" viewBox="-283 389.4 16 16" style="enable-background:new -283 389.4 16 16;" xml:space="preserve">
<style type="text/css">
	.st0{fill:#fff;}
</style>
<title>icon</title>
<path class="st0" d="M-270.5,397.4c0,0.8,0.7,1.5,1.5,1.5s1.5-0.7,1.5-1.5s-0.7-1.5-1.5-1.5S-270.5,396.6-270.5,397.4z
	 M-273.5,397.4c0-0.8-0.7-1.5-1.5-1.5s-1.5,0.7-1.5,1.5s0.7,1.5,1.5,1.5S-273.5,398.2-273.5,397.4z M-279.5,397.4
	c0-0.8-0.7-1.5-1.5-1.5s-1.5,0.7-1.5,1.5s0.7,1.5,1.5,1.5S-279.5,398.2-279.5,397.4z"/>
</svg>
