<?xml version="1.0" encoding="utf-8"?>
<!-- Generator: Adobe Illustrator 19.0.0, SVG Export Plug-In . SVG Version: 6.00 Build 0)  -->
<svg version="1.1" id="图层_1" xmlns="http://www.w3.org/2000/svg" xmlns:xlink="http://www.w3.org/1999/xlink" x="0px" y="0px"
	 width="12px" height="12px" viewBox="-297 389 16 16" style="enable-background:new -297 389 16 16;" xml:space="preserve">
<style type="text/css">
	.st0{fill:#333;}
</style>
<g>
	<g>
		<polygon class="st0" points="-285,391 -285,392 -286,392 -286,393 -287,393 -287,394 -288,394 -288,395 -289,395 -289,396 
			-290,396 -290,395 -291,395 -291,394 -292,394 -292,393 -293,393 -293,392 -294,392 -294,391 -295,391 -295,393 -294,393 
			-294,394 -293,394 -293,395 -292,395 -292,396 -291,396 -291,398 -292,398 -292,399 -293,399 -293,400 -294,400 -294,401 
			-295,401 -295,403 -294,403 -294,402 -293,402 -293,401 -292,401 -292,400 -291,400 -291,399 -290,399 -290,398 -289,398 
			-289,399 -288,399 -288,400 -287,400 -287,401 -286,401 -286,402 -285,402 -285,403 -284,403 -284,401 -285,401 -285,400 
			-286,400 -286,399 -287,399 -287,398 -288,398 -288,396 -287,396 -287,395 -286,395 -286,394 -285,394 -285,393 -284,393 
			-284,391 		"/>
	</g>
</g>
</svg>
