<svg id="图层_1" data-name="图层 1" xmlns="http://www.w3.org/2000/svg" width="100" height="25" viewBox="0 0 100 25">
  <defs>
    <style>
      .cls-1 {
        fill: #00a4ff;
      }
    </style>
  </defs>
  <title>云＋社区-logo-170704</title>
  <g>
    <path class="cls-1" d="M32.26,11.37A8,8,0,0,0,26.55,9a7.81,7.81,0,0,0-5.06,1.85c-.63.52-1.3,1.14-2.14,1.95L10,21.86c-.5,0-1.22,0-1.86,0a5.07,5.07,0,0,1-3.51-1.36A4.88,4.88,0,0,1,8,12.1a5.06,5.06,0,0,1,3.31,1.32c.62.52,2,1.73,2.61,2.28a.07.07,0,0,0,.1,0l2.14-2.09a.08.08,0,0,0,0-.12c-1-.93-2.49-2.23-3.36-2.88a8.15,8.15,0,0,0-3-1.44h.07A7.59,7.59,0,0,1,24.17,7.57a.07.07,0,0,0,.08,0,9.22,9.22,0,0,1,3-.32c.1,0,.14,0,.11-.14A10.74,10.74,0,0,0,6.67,9.08h0A8,8,0,0,0,2.41,22.71a7.79,7.79,0,0,0,4.47,2.16h0A18.68,18.68,0,0,0,9.16,25H24.32c1.17,0,1.93,0,2.74-.06a7.89,7.89,0,0,0,5.07-2.23A8,8,0,0,0,32.26,11.37Zm-2.32,9.1a5.06,5.06,0,0,1-3.51,1.36c-.83,0-1.81,0-2.25,0H14.5l6.94-6.74c.32-.31,1-1,1.66-1.55a5,5,0,0,1,3.45-1.46,4.88,4.88,0,0,1,3.4,8.37Z"/>
    <g>
      <rect x="42.14" y="4.69" width="11.22" height="1.64"/>
      <path d="M46.82,12.51H57.45V10.87H40.32v1.64h4.59l-3.34,8.78a.09.09,0,0,0,.08.13H56.5a.09.09,0,0,0,.08-.13l-2.13-5.6H52.68a.09.09,0,0,0-.09.12l1.51,4h-10Z"/>
    </g>
    <g>
      <polygon points="76.79 19.75 76.79 10.65 80.97 10.65 80.97 8.99 76.79 8.99 76.79 3.57 74.99 3.57 74.99 8.99 70.82 8.99 70.82 10.65 74.99 10.65 74.99 19.75 70.27 19.75 70.27 21.4 81.52 21.4 81.52 19.75 76.79 19.75"/>
      <path d="M71.42,15.06a.09.09,0,0,0,.07-.15l-2.36-2.79h-.75a12,12,0,0,0,1.7-3.19l0-.09V7.42H64.19v1.5h4.12A14.43,14.43,0,0,1,64,14.24v1.84a.09.09,0,0,0,.14.08,14.43,14.43,0,0,0,2.34-1.89v7.51h1.65V13.55l1.28,1.51Z"/>
      <path d="M65.4,3.75a.09.09,0,0,0-.08.14L67,6.66h1.78a.09.09,0,0,0,.08-.14L67.18,3.75Z"/>
    </g>
    <g>
      <path d="M98.08,6.91H95.94L92.77,11,89.52,6.91H87.38a.09.09,0,0,0-.07.15l4.31,5.47-4.53,5.88a.09.09,0,0,0,.08.15H89.3L92.79,14l3.57,4.53h2.15a.09.09,0,0,0,.07-.14l-4.63-5.89,4.21-5.47A.09.09,0,0,0,98.08,6.91Z"/>
      <polygon points="99.75 19.75 85.91 19.75 85.91 5.73 99.61 5.73 99.61 4.08 84.1 4.08 84.1 21.4 99.75 21.4 99.75 19.75"/>
    </g>
    <polygon points="62.09 4.69 59.02 4.69 59.02 1.62 57.38 1.62 57.38 4.69 54.32 4.69 54.32 6.33 57.38 6.33 57.38 9.39 59.02 9.39 59.02 6.33 62.09 6.33 62.09 4.69"/>
  </g>
</svg>
