<svg id="图层_1" data-name="图层 1" xmlns="http://www.w3.org/2000/svg" width="25" height="25" viewBox="0 0 50 50">
  <defs>
    <style>
      .cls-1 {
        fill: #00a4ff;
        fill-rule: evenodd;
      }
    </style>
  </defs>
  <title>icon</title>
  <path class="cls-1" d="M42,40H17a2,2,0,0,1,0-4H42a2,2,0,0,1,0,4Zm0-13H17a2,2,0,0,1,0-4H42a2,2,0,0,1,0,4Zm0-13H17a2,2,0,0,1,0-4H42a2,2,0,0,1,0,4ZM12,38a3,3,0,1,1-3-3A3,3,0,0,1,12,38Zm0-13a3,3,0,1,1-3-3A3,3,0,0,1,12,25Zm0-13A3,3,0,1,1,9,9,3,3,0,0,1,12,12Z"/>
</svg>
