<svg id="图层_1" data-name="图层 1" xmlns="http://www.w3.org/2000/svg" width="25" height="25" viewBox="0 0 50 50">
  <defs>
    <style>
      .cls-1 {
        fill: #7c848e;
      }
    </style>
  </defs>
  <title>icon</title>
  <g>
    <circle class="cls-1" cx="25" cy="6" r="3"/>
    <circle class="cls-1" cx="34" cy="6" r="3"/>
    <circle class="cls-1" cx="16" cy="6" r="3"/>
    <path class="cls-1" d="M43.85,43.24,35,24V16h4a2,2,0,0,0,0-4H11a2,2,0,0,0,0,4h4v8L6.15,43.24A2,2,0,0,0,8,46H42A2,2,0,0,0,43.85,43.24ZM25,16h6v8.88l.06.12H18.94l.06-.12V16Zm0,26H11.12l6-13H32.9l6,13Z"/>
  </g>
</svg>
