<?xml version="1.0" encoding="utf-8"?>
<!-- Generator: Adobe Illustrator 22.0.1, SVG Export Plug-In . SVG Version: 6.00 Build 0)  -->
<svg version="1.1" id="图层_1" xmlns="http://www.w3.org/2000/svg" xmlns:xlink="http://www.w3.org/1999/xlink" x="0px" y="0px"
	 viewBox="0 0 25 25" style="enable-background:new 0 0 25 25;" xml:space="preserve">
<style type="text/css">
	.st0{fill:#7C848E;}
</style>
<title>更多</title>
<path id="_复合路径_" class="st0" d="M20.9,22h-6.3c-0.6,0-1.1-0.5-1.1-1.1v-6.3c0-0.6,0.5-1.1,1.1-1.1h6.3
	c0.6,0,1.1,0.5,1.1,1.1v6.3C22,21.5,21.5,22,20.9,22z M19.9,15.7h-4.2v4.2h4.2V15.7z M20.9,11.4h-6.3c-0.6,0-1.1-0.5-1.1-1.1V4.1
	C13.6,3.5,14,3,14.6,3h6.3C21.5,3,22,3.5,22,4.1v6.3C22,11,21.5,11.4,20.9,11.4z M19.9,5.1h-4.2v4.2h4.2V5.1z M10.4,22H4.1
	C3.5,22,3,21.5,3,20.9v-6.3c0-0.6,0.5-1.1,1.1-1.1h6.3c0.6,0,1.1,0.5,1.1,1.1v6.3C11.4,21.5,11,22,10.4,22z M9.3,15.7H5.1v4.2h4.2
	V15.7z M10.4,11.4H4.1C3.5,11.4,3,11,3,10.4V4.1C3,3.5,3.5,3,4.1,3h6.3c0.6,0,1.1,0.5,1.1,1.1v6.3C11.4,11,11,11.4,10.4,11.4z
	 M9.3,5.1H5.1v4.2h4.2V5.1z"/>
</svg>
