<?xml version="1.0" encoding="UTF-8"?>
<svg width="80px" height="80px" viewBox="0 0 140 140" version="1.1" xmlns="http://www.w3.org/2000/svg" xmlns:xlink="http://www.w3.org/1999/xlink">
    <!-- Generator: Sketch 47.1 (45422) - http://www.bohemiancoding.com/sketch -->
    <title>Fill 3</title>
    <desc>Created with Sketch.</desc>
    <defs></defs>
    <g id="移动端" stroke="none" stroke-width="1" fill="none" fill-rule="evenodd">
        <g id="空白2" transform="translate(-306.000000, -569.000000)" fill="#BBBBBB">
            <g id="Page-1" transform="translate(306.000000, 569.000000)">
                <path d="M64,104 L64,92 L76,92 L76,104 L64,104 Z M64,82 L64,37 L76,37 L76,82 L64,82 Z M70.5663717,134 C34.70784,134 6,105.29216 6,70.5663717 C6,34.70784 34.70784,6 70.5663717,6 C105.29216,6 134,34.70784 134,70.5663717 C134,105.29216 105.29216,134 70.5663717,134 M70,0 C31.3374194,0 0,31.3374194 0,70 C0,108.662581 31.3374194,140 70,140 C108.662581,140 140,108.662581 140,70 C140,31.3374194 108.662581,0 70,0" id="Fill-3"></path>
            </g>
        </g>
    </g>
</svg>