<?xml version="1.0" encoding="utf-8"?>
<!-- Generator: Adobe Illustrator 21.0.0, SVG Export Plug-In . SVG Version: 6.00 Build 0)  -->
<svg version="1.1" id="图层_1" xmlns="http://www.w3.org/2000/svg" xmlns:xlink="http://www.w3.org/1999/xlink" x="0px" y="0px"
	 width="16px" height="16px" viewBox="0 0 16 16" style="enable-background:new 0 0 16 16;" xml:space="preserve">
<style type="text/css">
	.st0{fill:#333;}
</style>
<title>icon</title>
<g>
	<path class="st0" d="M14,13c0,0.6-0.4,1-1,1H3c-0.6,0-1-0.4-1-1V3c0-0.6,0.4-1,1-1h5V1H3C1.9,1,1,1.9,1,3v10c0,1.1,0.9,2,2,2h10
		c1.1,0,2-0.9,2-2V8h-1V13z"/>
	<polygon class="st0" points="14,1 10,1 10,2 13.3,2 6.3,9 7,9.7 14,2.7 14,6 15,6 15,2 15,1 	"/>
</g>
</svg>
