<?xml version="1.0" encoding="utf-8"?>
<!-- Generator: Adobe Illustrator 19.0.0, SVG Export Plug-In . SVG Version: 6.00 Build 0)  -->
<svg version="1.1" id="Layer_1" xmlns="http://www.w3.org/2000/svg" xmlns:xlink="http://www.w3.org/1999/xlink" x="0px" y="0px"
	 width="16px" height="16px" viewBox="0 0 16 16" style="enable-background:new 0 0 16 16;" xml:space="preserve">
<style type="text/css">
	.st0{fill-rule:evenodd;clip-rule:evenodd;fill:#333;}
</style>
<path id="XMLID_8_" class="st0" d="M7.5,11C7.2,11,7,11.3,7,11.5v1C7,12.8,7.2,13,7.5,13S8,12.8,8,12.5v-1C8,11.3,7.7,11,7.5,11z
	 M7.5,5C7.2,5,7,5.3,7,5.5v4C7,9.8,7.2,10,7.5,10S8,9.8,8,9.5v-4C8,5.3,7.7,5,7.5,5z M7.5,2L13.9,14L1,14L7.5,2C7.5,2,7.5,2,7.5,2z
	 M7.5,1C7.1,1,6.8,1.1,6.6,1.5L0.1,13.6C-0.2,14.2,0.2,15,1,15h12.9c0.8,0,1.2-0.8,0.9-1.5L8.4,1.5C8.2,1.1,7.8,1,7.5,1"/>
</svg>
