<?xml version="1.0" encoding="utf-8"?>
<!-- Generator: Adobe Illustrator 19.0.0, SVG Export Plug-In . SVG Version: 6.00 Build 0)  -->
<svg version="1.1" id="Layer_1" xmlns="http://www.w3.org/2000/svg" xmlns:xlink="http://www.w3.org/1999/xlink" x="0px" y="0px"
	 width="16px" height="16px" viewBox="0 0 16 16" style="enable-background:new 0 0 16 16;" xml:space="preserve">
<style type="text/css">
	.st0{fill-rule:evenodd;clip-rule:evenodd;fill:#999;}
</style>
<path class="st0" d="M8,2C4.4,2,1.3,4.5,0,8c1.3,3.5,4.4,6,8,6s6.7-2.5,8-6C14.7,4.5,11.6,2,8,2 M8,13c-3,0-5.7-2-6.9-5
	C2.3,4.9,5,3,8,3s5.7,2,6.9,5C13.7,11.1,11,13,8,13 M8,5C6.3,5,5,6.3,5,8s1.3,3,3,3s3-1.3,3-3S9.7,5,8,5 M8,10c-1.1,0-2-0.9-2-2
	s0.9-2,2-2s2,0.9,2,2S9.1,10,8,10"/>
</svg>
