<svg id="图层_1" data-name="图层 1" xmlns="http://www.w3.org/2000/svg" xmlns:xlink="http://www.w3.org/1999/xlink" width="20" height="20" viewBox="0 0 20 20"><defs><style>.cls-1{fill:none;}.cls-2{fill:#888;}.cls-3{clip-path:url(#clip-path);}.cls-4{clip-path:url(#clip-path-2);}</style><clipPath id="clip-path"><rect class="cls-1" x="-1031.17" y="-266.67" width="20" height="20"/></clipPath><clipPath id="clip-path-2"><rect class="cls-1" x="-993" y="-267" width="20" height="20"/></clipPath></defs><title>icon</title><path class="cls-2" d="M18,1a1,1,0,0,1,1,1V13a1,1,0,0,1-1,1H13.64l-.28.23L9,17.86V14H2a1,1,0,0,1-1-1V2A1,1,0,0,1,2,1H18m0-1H2A2,2,0,0,0,0,2V13a2,2,0,0,0,2,2H8v5l6-5h4a2,2,0,0,0,2-2V2a2,2,0,0,0-2-2Z"/></svg>