<svg id="图层_1" data-name="图层 1" xmlns="http://www.w3.org/2000/svg" width="35" height="40" viewBox="0 0 35 40">
  <title>logo</title>
  <g id="空白页">
    <g id="Group-2">
      <g id="logo">
        <path id="Fill-1" d="M30.331,20.633a5.144,5.144,0,0,1-3.56,1.373c-.844.028-1.829.031-2.28.031h-9.8c3.567-3.447,6.679-6.455,7.032-6.795.324-.313,1.051-1.006,1.679-1.568A5.057,5.057,0,0,1,26.89,12.2a5,5,0,0,1,3.517,1.472,4.915,4.915,0,0,1-.076,6.961m2.348-9.173A8.089,8.089,0,0,0,26.9,9.037a7.936,7.936,0,0,0-5.126,1.868c-.644.521-1.318,1.145-2.166,1.965l-9.494,9.167c-.51,0-1.239-.01-1.887-.031A5.146,5.146,0,0,1,4.67,20.633a4.915,4.915,0,0,1-.077-6.961A5.006,5.006,0,0,1,8.109,12.2a5.138,5.138,0,0,1,3.35,1.334c.63.52,2.03,1.744,2.644,2.3a.074.074,0,0,0,.105,0l2.167-2.1a.077.077,0,0,0,0-.118c-1.042-.937-2.518-2.248-3.408-2.906A8.26,8.26,0,0,0,9.9,9.246c.012,0,.023,0,.035,0l.034.007a7.7,7.7,0,0,1,14.522-1.63.069.069,0,0,0,.084.046,9.373,9.373,0,0,1,3.071-.318c.1.008.143-.05.11-.144a10.89,10.89,0,0,0-21,1.938H6.76A8.075,8.075,0,0,0,2.446,22.894a7.907,7.907,0,0,0,4.524,2.18h0a19.179,19.179,0,0,0,2.307.124c.736,0,14.775,0,15.363,0,1.182,0,1.952,0,2.779-.061A8.036,8.036,0,0,0,32.679,11.46" style="fill: #ccc"/>
        <polygon id="Fill-3" points="3.564 32.153 9.286 32.153 9.286 31.323 3.564 31.323 3.564 32.153" style="fill: #ccc"/>
        <path id="Fill-5" d="M5.953,35.292h5.42v-.831H2.636v.831H4.978c-.483,1.264-1.7,4.435-1.706,4.458a.046.046,0,0,0,.043.065h7.577a.047.047,0,0,0,.042-.066L9.848,36.908H8.942a.047.047,0,0,0-.044.064c.012.029.769,2.012.769,2.012H4.543Z" style="fill: #ccc"/>
        <polygon id="Fill-6" points="21.242 38.969 21.242 34.35 23.37 34.35 23.37 33.51 21.242 33.51 21.242 30.755 20.321 30.755 20.321 33.51 18.193 33.51 18.193 34.35 20.321 34.35 20.321 38.969 17.912 38.969 17.912 39.809 23.652 39.809 23.652 38.969 21.242 38.969" style="fill: #ccc"/>
        <path id="Fill-7" d="M18.5,36.588a.047.047,0,0,0,.035-.077l-1.2-1.419H16.95a6.074,6.074,0,0,0,.869-1.62l.014-.044v-.72H14.815v.764h2.1a7.323,7.323,0,0,1-2.183,2.7v.935a.048.048,0,0,0,.072.04,7.408,7.408,0,0,0,1.2-.959V40h.844V35.821l.65.767Z" style="fill: #ccc"/>
        <path id="Fill-8" d="M15.43,30.849a.047.047,0,0,0-.039.073l.879,1.4h.909a.047.047,0,0,0,.039-.073l-.878-1.4Z" style="fill: #ccc"/>
        <path id="Fill-9" d="M32.1,32.454H31.008L29.39,34.547l-1.655-2.093H26.642a.046.046,0,0,0-.038.075l2.2,2.779-2.31,2.986a.047.047,0,0,0,.04.075h1.093l1.778-2.3,1.82,2.3h1.1a.044.044,0,0,0,.036-.071l-2.364-2.99,2.149-2.779a.047.047,0,0,0-.04-.075" style="fill: #ccc"/>
        <polygon id="Fill-10" points="32.955 38.969 25.892 38.969 25.892 31.854 32.881 31.854 32.881 31.014 24.972 31.014 24.972 39.809 32.955 39.809 32.955 38.969" style="fill: #ccc"/>
        <polygon id="Fill-11" points="13.739 31.323 12.176 31.323 12.176 29.768 11.339 29.768 11.339 31.323 9.776 31.323 9.776 32.156 11.339 32.156 11.339 33.711 12.176 33.711 12.176 32.156 13.739 32.156 13.739 31.323" style="fill: #ccc"/>
      </g>
    </g>
  </g>
</svg>
